<svg xmlns="http://www.w3.org/2000/svg" width="300" height="85" fill="none"><g fill="#fff" filter="url(#a)"><path d="M257 55.5a8.5 8.5 0 1 1-17 0 8.5 8.5 0 0 1 17 0Z"/><path d="M8 31.5C8 16.864 19.864 5 34.5 5h232C281.136 5 293 16.864 293 31.5S281.136 58 266.5 58h-232C19.864 58 8 46.136 8 31.5ZM273 73.5a4.5 4.5 0 1 1-9 0 4.5 4.5 0 0 1 9 0Z"/></g><defs><filter id="a" width="305" height="93" x="0" y="-3" color-interpolation-filters="sRGB" filterUnits="userSpaceOnUse"><feFlood flood-opacity="0" result="BackgroundImageFix"/><feColorMatrix in="SourceAlpha" result="hardAlpha" values="0 0 0 0 0 0 0 0 0 0 0 0 0 0 0 0 0 0 127 0"/><feOffset dx="2" dy="2"/><feGaussianBlur stdDeviation="5"/><feColorMatrix values="0 0 0 0 0.0901961 0 0 0 0 0.227451 0 0 0 0 0.337255 0 0 0 0.15 0"/><feBlend in2="BackgroundImageFix" result="effect1_dropShadow_1176_58"/><feBlend in="SourceGraphic" in2="effect1_dropShadow_1176_58" result="shape"/></filter></defs></svg>