<svg xmlns="http://www.w3.org/2000/svg" width="300" height="85" fill="none"><g fill="#fff" filter="url(#a)"><path d="M44 57.192c0 4.758 3.806 8.616 8.5 8.616S61 61.95 61 57.192c0-4.759-3.806-8.617-8.5-8.617S44 52.433 44 57.192Z"/><path d="M293 32.863C293 18.027 281.136 6 266.5 6h-232C19.864 6 8 18.027 8 32.863s11.864 26.863 26.5 26.863h232c14.636 0 26.5-12.027 26.5-26.863ZM28 75.438C28 77.958 30.015 80 32.5 80s4.5-2.042 4.5-4.562c0-2.519-2.015-4.561-4.5-4.561S28 72.919 28 75.438Z"/></g><defs><filter id="a" width="305" height="94" x="0" y="-2" color-interpolation-filters="sRGB" filterUnits="userSpaceOnUse"><feFlood flood-opacity="0" result="BackgroundImageFix"/><feColorMatrix in="SourceAlpha" result="hardAlpha" values="0 0 0 0 0 0 0 0 0 0 0 0 0 0 0 0 0 0 127 0"/><feOffset dx="2" dy="2"/><feGaussianBlur stdDeviation="5"/><feColorMatrix values="0 0 0 0 0.0901961 0 0 0 0 0.227451 0 0 0 0 0.337255 0 0 0 0.15 0"/><feBlend in2="BackgroundImageFix" result="effect1_dropShadow_1176_63"/><feBlend in="SourceGraphic" in2="effect1_dropShadow_1176_63" result="shape"/></filter></defs></svg>